<?xml version="1.0" encoding="UTF-8" standalone="no"?>
<!DOCTYPE svg PUBLIC "-//W3C//DTD SVG 1.1//EN" "http://www.w3.org/Graphics/SVG/1.1/DTD/svg11.dtd">
<svg width="100%" height="100%" viewBox="0 0 100 100" version="1.1" xmlns="http://www.w3.org/2000/svg" xmlns:xlink="http://www.w3.org/1999/xlink" xml:space="preserve" xmlns:serif="http://www.serif.com/" style="fill-rule:evenodd;clip-rule:evenodd;stroke-linecap:round;stroke-linejoin:round;stroke-miterlimit:1.5;">
    <g transform="matrix(0.400819,0,0,0.399878,-1054.99,307.509)">
        <path id="B" d="M2687,-614L2687,-577.938C2687.41,-559.38 2702.4,-543.998 2720.92,-543.966C2740.63,-543.932 2757.41,-543.918 2771.8,-544C2801.8,-544.172 2826.67,-568.512 2826.67,-599C2826.67,-633.497 2777.96,-671 2751.85,-671C2736.72,-671 2724.91,-658.35 2724.91,-644C2724.91,-628.65 2738.02,-617 2751.85,-617C2782.67,-617 2826.67,-658.734 2826.67,-689C2826.67,-719.266 2802.05,-744 2771.8,-744L2720.92,-744C2701.83,-744 2687.25,-728.302 2687,-710L2687,-674" style="fill:none;stroke:rgb(250,170,0);stroke-width:19.98px;"/>
    </g>
</svg>